<svg xmlns="http://www.w3.org/2000/svg" xmlns:xlink="http://www.w3.org/1999/xlink" width="500" zoomAndPan="magnify" viewBox="0 0 375 374.999991" height="500" preserveAspectRatio="xMidYMid meet" version="1.0"><defs><g/><clipPath id="c94316cd70"><path d="M 79.496094 50 L 295.492188 50 L 295.492188 317.25 L 79.496094 317.25 Z M 79.496094 50 " clip-rule="nonzero"/></clipPath></defs><rect x="-37.5" width="450" fill="#ffffff" y="-37.499999" height="449.999989" fill-opacity="1"/><rect x="-37.5" width="450" fill="#e2a9f1" y="-37.499999" height="449.999989" fill-opacity="1"/><g clip-path="url(#c94316cd70)"><path fill="#000000" d="M 276.804688 317.25 L 98.183594 317.25 C 88.167969 317.25 79.820312 308.902344 79.820312 298.886719 L 79.820312 69.335938 C 79.820312 59.320312 88.167969 50.972656 98.183594 50.972656 L 115.710938 50.972656 C 119.050781 50.972656 121.972656 53.894531 121.972656 57.230469 C 121.972656 60.570312 119.050781 63.492188 115.710938 63.492188 L 98.183594 63.492188 C 94.84375 63.492188 92.339844 65.996094 92.339844 69.335938 L 92.339844 298.886719 C 92.339844 302.226562 94.84375 304.730469 98.183594 304.730469 L 276.804688 304.730469 C 280.144531 304.730469 282.648438 302.226562 282.648438 298.886719 L 282.648438 69.335938 C 282.648438 65.996094 280.144531 63.492188 276.804688 63.492188 L 259.277344 63.492188 C 255.9375 63.492188 253.015625 60.570312 253.015625 57.230469 C 253.015625 53.894531 255.9375 50.972656 259.277344 50.972656 L 276.804688 50.972656 C 286.820312 50.972656 295.167969 59.320312 295.167969 69.335938 L 295.167969 298.886719 C 295.167969 309.320312 286.820312 317.25 276.804688 317.25 Z M 276.804688 317.25 " fill-opacity="1" fill-rule="nonzero"/></g><path fill="#000000" d="M 228.394531 88.953125 L 146.59375 88.953125 C 140.335938 88.953125 134.910156 83.945312 134.910156 77.265625 L 134.910156 46.378906 C 134.910156 40.121094 139.917969 34.695312 146.59375 34.695312 L 165.375 34.695312 C 168.296875 25.09375 177.0625 18 187.492188 18 C 197.925781 18 207.109375 25.09375 209.613281 34.695312 L 227.976562 34.695312 C 234.238281 34.695312 239.660156 39.703125 239.660156 46.378906 L 239.660156 77.265625 C 240.078125 83.945312 234.652344 88.953125 228.394531 88.953125 Z M 147.429688 76.429688 L 227.140625 76.429688 L 227.140625 47.214844 L 204.1875 47.214844 C 200.847656 47.214844 197.925781 44.292969 197.925781 40.953125 C 197.925781 35.113281 193.335938 30.519531 187.492188 30.519531 C 181.652344 30.519531 177.0625 35.113281 177.0625 40.953125 C 177.0625 44.292969 174.140625 47.214844 170.800781 47.214844 L 147.429688 47.214844 Z M 147.429688 76.429688 " fill-opacity="1" fill-rule="nonzero"/><path fill="#000000" d="M 162.035156 216.246094 L 119.886719 216.246094 L 119.886719 174.09375 L 162.035156 174.09375 Z M 132.40625 203.726562 L 149.515625 203.726562 L 149.515625 186.613281 L 132.40625 186.613281 Z M 132.40625 203.726562 " fill-opacity="1" fill-rule="nonzero"/><path fill="#000000" d="M 248.84375 201.222656 L 186.242188 201.222656 C 182.902344 201.222656 179.980469 198.300781 179.980469 194.960938 C 179.980469 191.625 182.902344 188.703125 186.242188 188.703125 L 248.84375 188.703125 C 252.183594 188.703125 255.101562 191.625 255.101562 194.960938 C 255.101562 198.300781 252.183594 201.222656 248.84375 201.222656 Z M 248.84375 201.222656 " fill-opacity="1" fill-rule="nonzero"/><path fill="#000000" d="M 162.035156 278.433594 L 119.886719 278.433594 L 119.886719 236.28125 L 162.035156 236.28125 Z M 132.40625 265.914062 L 149.515625 265.914062 L 149.515625 248.800781 L 132.40625 248.800781 Z M 132.40625 265.914062 " fill-opacity="1" fill-rule="nonzero"/><path fill="#000000" d="M 241.332031 263.828125 L 186.242188 263.828125 C 182.902344 263.828125 179.980469 260.90625 179.980469 257.566406 C 179.980469 254.226562 182.902344 251.304688 186.242188 251.304688 L 241.332031 251.304688 C 244.667969 251.304688 247.589844 254.226562 247.589844 257.566406 C 247.589844 260.90625 245.085938 263.828125 241.332031 263.828125 Z M 241.332031 263.828125 " fill-opacity="1" fill-rule="nonzero"/><path fill="#000000" d="M 162.035156 154.0625 L 119.886719 154.0625 L 119.886719 111.90625 L 162.035156 111.90625 Z M 132.40625 141.539062 L 149.515625 141.539062 L 149.515625 124.429688 L 132.40625 124.429688 Z M 132.40625 141.539062 " fill-opacity="1" fill-rule="nonzero"/><path fill="#000000" d="M 248.84375 126.933594 L 186.242188 126.933594 C 182.902344 126.933594 179.980469 124.011719 179.980469 120.671875 C 179.980469 117.332031 182.902344 114.410156 186.242188 114.410156 L 248.84375 114.410156 C 252.183594 114.410156 255.101562 117.332031 255.101562 120.671875 C 255.101562 124.011719 252.183594 126.933594 248.84375 126.933594 Z M 248.84375 126.933594 " fill-opacity="1" fill-rule="nonzero"/><path fill="#000000" d="M 232.566406 151.140625 L 186.242188 151.140625 C 182.902344 151.140625 179.980469 148.21875 179.980469 144.878906 C 179.980469 141.539062 182.902344 138.617188 186.242188 138.617188 L 232.566406 138.617188 C 235.90625 138.617188 238.828125 141.539062 238.828125 144.878906 C 238.828125 148.21875 235.90625 151.140625 232.566406 151.140625 Z M 232.566406 151.140625 " fill-opacity="1" fill-rule="nonzero"/><g fill="#000000" fill-opacity="1"><g transform="translate(79.517578, 346.499977)"><g><path d="M 8.375 -13.296875 L 8.375 -11.421875 C 9.632812 -12.328125 10.628906 -12.929688 11.359375 -13.234375 C 12.085938 -13.546875 12.769531 -13.703125 13.40625 -13.703125 C 14.382812 -13.703125 15.332031 -13.335938 16.25 -12.609375 C 16.875 -12.117188 17.1875 -11.625 17.1875 -11.125 C 17.1875 -10.6875 17.035156 -10.316406 16.734375 -10.015625 C 16.441406 -9.722656 16.082031 -9.578125 15.65625 -9.578125 C 15.289062 -9.578125 14.898438 -9.757812 14.484375 -10.125 C 14.078125 -10.5 13.710938 -10.6875 13.390625 -10.6875 C 12.972656 -10.6875 12.34375 -10.421875 11.5 -9.890625 C 10.664062 -9.367188 9.625 -8.582031 8.375 -7.53125 L 8.375 -3 L 12.65625 -3 C 13.375 -3 13.882812 -2.859375 14.1875 -2.578125 C 14.5 -2.304688 14.65625 -1.945312 14.65625 -1.5 C 14.65625 -1.050781 14.5 -0.6875 14.1875 -0.40625 C 13.882812 -0.132812 13.375 0 12.65625 0 L 3.59375 0 C 2.863281 0 2.34375 -0.132812 2.03125 -0.40625 C 1.726562 -0.6875 1.578125 -1.054688 1.578125 -1.515625 C 1.578125 -1.953125 1.726562 -2.304688 2.03125 -2.578125 C 2.34375 -2.859375 2.863281 -3 3.59375 -3 L 5.375 -3 L 5.375 -10.296875 L 4.296875 -10.296875 C 3.566406 -10.296875 3.046875 -10.4375 2.734375 -10.71875 C 2.429688 -11 2.28125 -11.363281 2.28125 -11.8125 C 2.28125 -12.25 2.429688 -12.601562 2.734375 -12.875 C 3.046875 -13.15625 3.566406 -13.296875 4.296875 -13.296875 Z M 8.375 -13.296875 "/></g></g></g><g fill="#000000" fill-opacity="1"><g transform="translate(97.51348, 346.499977)"><g><path d="M 5.90625 -19 L 5.90625 -12.59375 C 6.53125 -12.96875 7.160156 -13.242188 7.796875 -13.421875 C 8.441406 -13.609375 9.085938 -13.703125 9.734375 -13.703125 C 10.773438 -13.703125 11.695312 -13.523438 12.5 -13.171875 C 13.3125 -12.816406 13.984375 -12.257812 14.515625 -11.5 C 15.054688 -10.75 15.328125 -9.796875 15.328125 -8.640625 L 15.328125 -3 C 16.085938 -3 16.582031 -2.925781 16.8125 -2.78125 C 17.28125 -2.476562 17.515625 -2.050781 17.515625 -1.5 C 17.515625 -1.050781 17.363281 -0.6875 17.0625 -0.40625 C 16.757812 -0.132812 16.25 0 15.53125 0 L 12.09375 0 C 11.382812 0 10.875 -0.132812 10.5625 -0.40625 C 10.257812 -0.6875 10.109375 -1.054688 10.109375 -1.515625 C 10.109375 -2.054688 10.34375 -2.476562 10.8125 -2.78125 C 11.050781 -2.9375 11.550781 -3.007812 12.3125 -3 L 12.3125 -8.4375 C 12.3125 -9.207031 12.132812 -9.75 11.78125 -10.0625 C 11.320312 -10.476562 10.640625 -10.6875 9.734375 -10.6875 C 9.078125 -10.6875 8.488281 -10.554688 7.96875 -10.296875 C 7.457031 -10.046875 6.769531 -9.488281 5.90625 -8.625 L 5.90625 -3 C 6.675781 -3 7.171875 -2.925781 7.390625 -2.78125 C 7.867188 -2.476562 8.109375 -2.050781 8.109375 -1.5 C 8.109375 -1.050781 7.953125 -0.6875 7.640625 -0.40625 C 7.335938 -0.132812 6.828125 0 6.109375 0 L 2.703125 0 C 1.972656 0 1.453125 -0.132812 1.140625 -0.40625 C 0.835938 -0.6875 0.6875 -1.054688 0.6875 -1.515625 C 0.6875 -2.054688 0.925781 -2.476562 1.40625 -2.78125 C 1.644531 -2.9375 2.144531 -3.007812 2.90625 -3 L 2.90625 -16 L 2.390625 -16 C 1.660156 -16 1.140625 -16.132812 0.828125 -16.40625 C 0.523438 -16.6875 0.375 -17.050781 0.375 -17.5 C 0.375 -17.945312 0.523438 -18.304688 0.828125 -18.578125 C 1.140625 -18.859375 1.660156 -19 2.390625 -19 Z M 5.90625 -19 "/></g></g></g><g fill="#000000" fill-opacity="1"><g transform="translate(115.509382, 346.499977)"><g><path d="M 8.984375 -10.296875 L 8.984375 -3 L 13.25 -3 C 13.976562 -3 14.492188 -2.859375 14.796875 -2.578125 C 15.109375 -2.304688 15.265625 -1.945312 15.265625 -1.5 C 15.265625 -1.050781 15.109375 -0.6875 14.796875 -0.40625 C 14.492188 -0.132812 13.976562 0 13.25 0 L 4.1875 0 C 3.46875 0 2.953125 -0.132812 2.640625 -0.40625 C 2.335938 -0.6875 2.1875 -1.054688 2.1875 -1.515625 C 2.1875 -1.953125 2.335938 -2.304688 2.640625 -2.578125 C 2.953125 -2.859375 3.46875 -3 4.1875 -3 L 5.984375 -3 L 5.984375 -10.296875 L 4.546875 -10.296875 C 3.816406 -10.296875 3.296875 -10.4375 2.984375 -10.71875 C 2.679688 -11 2.53125 -11.363281 2.53125 -11.8125 C 2.53125 -12.25 2.679688 -12.601562 2.984375 -12.875 C 3.296875 -13.15625 3.816406 -13.296875 4.546875 -13.296875 L 5.984375 -13.296875 L 5.984375 -14.4375 C 5.984375 -15.75 6.472656 -16.835938 7.453125 -17.703125 C 8.429688 -18.566406 9.851562 -19 11.71875 -19 C 12.550781 -19 13.507812 -18.921875 14.59375 -18.765625 C 15.6875 -18.617188 16.382812 -18.40625 16.6875 -18.125 C 17 -17.851562 17.15625 -17.503906 17.15625 -17.078125 C 17.15625 -16.617188 17.015625 -16.242188 16.734375 -15.953125 C 16.460938 -15.671875 16.128906 -15.53125 15.734375 -15.53125 C 15.546875 -15.53125 15.265625 -15.5625 14.890625 -15.625 C 13.648438 -15.875 12.554688 -16 11.609375 -16 C 10.609375 -16 9.921875 -15.847656 9.546875 -15.546875 C 9.171875 -15.253906 8.984375 -14.882812 8.984375 -14.4375 L 8.984375 -13.296875 L 13.609375 -13.296875 C 14.328125 -13.296875 14.835938 -13.15625 15.140625 -12.875 C 15.453125 -12.601562 15.609375 -12.242188 15.609375 -11.796875 C 15.609375 -11.359375 15.453125 -11 15.140625 -10.71875 C 14.835938 -10.4375 14.328125 -10.296875 13.609375 -10.296875 Z M 8.984375 -10.296875 "/></g></g></g><g fill="#000000" fill-opacity="1"><g transform="translate(133.505283, 346.499977)"><g><path d="M 15.296875 -7.15625 L 2.75 -7.15625 L 2.75 -9.890625 L 15.296875 -9.890625 Z M 15.296875 -7.15625 "/></g></g></g><g fill="#000000" fill-opacity="1"><g transform="translate(151.501185, 346.499977)"><g><path d="M 12.25 -9.78125 C 11.757812 -10.082031 11.242188 -10.304688 10.703125 -10.453125 C 10.171875 -10.609375 9.613281 -10.6875 9.03125 -10.6875 C 7.863281 -10.6875 6.9375 -10.5 6.25 -10.125 C 5.945312 -9.957031 5.796875 -9.773438 5.796875 -9.578125 C 5.796875 -9.359375 6.003906 -9.140625 6.421875 -8.921875 C 6.734375 -8.765625 7.429688 -8.613281 8.515625 -8.46875 C 10.503906 -8.195312 11.890625 -7.921875 12.671875 -7.640625 C 13.691406 -7.285156 14.476562 -6.75 15.03125 -6.03125 C 15.59375 -5.320312 15.875 -4.570312 15.875 -3.78125 C 15.875 -2.707031 15.398438 -1.804688 14.453125 -1.078125 C 13.097656 -0.0351562 11.335938 0.484375 9.171875 0.484375 C 8.296875 0.484375 7.488281 0.40625 6.75 0.25 C 6.019531 0.101562 5.347656 -0.113281 4.734375 -0.40625 C 4.585938 -0.28125 4.429688 -0.179688 4.265625 -0.109375 C 4.097656 -0.046875 3.925781 -0.015625 3.75 -0.015625 C 3.28125 -0.015625 2.90625 -0.164062 2.625 -0.46875 C 2.351562 -0.78125 2.21875 -1.296875 2.21875 -2.015625 L 2.21875 -3.03125 C 2.21875 -3.75 2.351562 -4.265625 2.625 -4.578125 C 2.90625 -4.890625 3.269531 -5.046875 3.71875 -5.046875 C 4.082031 -5.046875 4.382812 -4.941406 4.625 -4.734375 C 4.875 -4.535156 5.066406 -4.191406 5.203125 -3.703125 C 5.660156 -3.316406 6.210938 -3.019531 6.859375 -2.8125 C 7.503906 -2.613281 8.242188 -2.515625 9.078125 -2.515625 C 10.453125 -2.515625 11.523438 -2.734375 12.296875 -3.171875 C 12.648438 -3.378906 12.828125 -3.601562 12.828125 -3.84375 C 12.828125 -4.226562 12.570312 -4.550781 12.0625 -4.8125 C 11.539062 -5.0625 10.46875 -5.273438 8.84375 -5.453125 C 6.4375 -5.703125 4.828125 -6.191406 4.015625 -6.921875 C 3.203125 -7.628906 2.796875 -8.503906 2.796875 -9.546875 C 2.796875 -10.617188 3.25 -11.515625 4.15625 -12.234375 C 5.382812 -13.210938 7 -13.703125 9 -13.703125 C 9.6875 -13.703125 10.347656 -13.632812 10.984375 -13.5 C 11.628906 -13.363281 12.242188 -13.160156 12.828125 -12.890625 C 13.015625 -13.023438 13.1875 -13.125 13.34375 -13.1875 C 13.507812 -13.257812 13.660156 -13.296875 13.796875 -13.296875 C 14.210938 -13.296875 14.554688 -13.140625 14.828125 -12.828125 C 15.097656 -12.523438 15.234375 -12.015625 15.234375 -11.296875 L 15.234375 -10.5625 C 15.234375 -9.90625 15.15625 -9.460938 15 -9.234375 C 14.6875 -8.785156 14.257812 -8.5625 13.71875 -8.5625 C 13.363281 -8.5625 13.046875 -8.671875 12.765625 -8.890625 C 12.492188 -9.117188 12.320312 -9.414062 12.25 -9.78125 Z M 12.25 -9.78125 "/></g></g></g><g fill="#000000" fill-opacity="1"><g transform="translate(169.497086, 346.499977)"><g><path d="M 7.328125 -0.109375 L 2.125 -10.296875 C 1.632812 -10.359375 1.257812 -10.523438 1 -10.796875 C 0.75 -11.066406 0.625 -11.398438 0.625 -11.796875 C 0.625 -12.242188 0.773438 -12.601562 1.078125 -12.875 C 1.390625 -13.15625 1.910156 -13.296875 2.640625 -13.296875 L 5.375 -13.296875 C 6.09375 -13.296875 6.609375 -13.15625 6.921875 -12.875 C 7.234375 -12.601562 7.390625 -12.242188 7.390625 -11.796875 C 7.390625 -11.359375 7.234375 -11 6.921875 -10.71875 C 6.609375 -10.4375 6.125 -10.296875 5.46875 -10.296875 L 9.015625 -3.40625 L 12.53125 -10.296875 C 11.882812 -10.296875 11.40625 -10.4375 11.09375 -10.71875 C 10.789062 -11 10.640625 -11.363281 10.640625 -11.8125 C 10.640625 -12.25 10.789062 -12.601562 11.09375 -12.875 C 11.40625 -13.15625 11.921875 -13.296875 12.640625 -13.296875 L 15.46875 -13.296875 C 16.175781 -13.296875 16.6875 -13.15625 17 -12.875 C 17.3125 -12.601562 17.46875 -12.242188 17.46875 -11.796875 C 17.46875 -11.390625 17.332031 -11.046875 17.0625 -10.765625 C 16.800781 -10.492188 16.410156 -10.335938 15.890625 -10.296875 L 9.015625 3.265625 C 9.765625 3.265625 10.253906 3.335938 10.484375 3.484375 C 10.953125 3.785156 11.1875 4.21875 11.1875 4.78125 C 11.1875 5.21875 11.03125 5.570312 10.71875 5.84375 C 10.414062 6.125 9.90625 6.265625 9.1875 6.265625 L 2.640625 6.265625 C 1.910156 6.265625 1.390625 6.125 1.078125 5.84375 C 0.773438 5.570312 0.625 5.21875 0.625 4.78125 C 0.625 4.332031 0.773438 3.96875 1.078125 3.6875 C 1.390625 3.40625 1.910156 3.265625 2.640625 3.265625 L 5.625 3.265625 Z M 7.328125 -0.109375 "/></g></g></g><g fill="#000000" fill-opacity="1"><g transform="translate(187.492988, 346.499977)"><g><path d="M 5.96875 -13.296875 L 5.96875 -12.296875 C 6.507812 -12.765625 7.109375 -13.113281 7.765625 -13.34375 C 8.429688 -13.582031 9.148438 -13.703125 9.921875 -13.703125 C 11.691406 -13.703125 13.097656 -13.148438 14.140625 -12.046875 C 14.953125 -11.160156 15.359375 -10.003906 15.359375 -8.578125 L 15.359375 -3 C 15.992188 -3 16.460938 -2.859375 16.765625 -2.578125 C 17.078125 -2.304688 17.234375 -1.945312 17.234375 -1.5 C 17.234375 -1.050781 17.078125 -0.6875 16.765625 -0.40625 C 16.453125 -0.132812 15.9375 0 15.21875 0 L 12.515625 0 C 11.785156 0 11.265625 -0.132812 10.953125 -0.40625 C 10.648438 -0.6875 10.5 -1.054688 10.5 -1.515625 C 10.5 -1.953125 10.648438 -2.304688 10.953125 -2.578125 C 11.253906 -2.859375 11.722656 -3 12.359375 -3 L 12.359375 -8.671875 C 12.359375 -9.328125 12.1875 -9.804688 11.84375 -10.109375 C 11.375 -10.492188 10.679688 -10.6875 9.765625 -10.6875 C 9.078125 -10.6875 8.46875 -10.550781 7.9375 -10.28125 C 7.414062 -10.019531 6.757812 -9.453125 5.96875 -8.578125 L 5.96875 -3 C 6.738281 -3 7.234375 -2.925781 7.453125 -2.78125 C 7.929688 -2.488281 8.171875 -2.0625 8.171875 -1.5 C 8.171875 -1.050781 8.015625 -0.6875 7.703125 -0.40625 C 7.398438 -0.132812 6.890625 0 6.171875 0 L 2.75 0 C 2.03125 0 1.515625 -0.132812 1.203125 -0.40625 C 0.898438 -0.6875 0.75 -1.054688 0.75 -1.515625 C 0.75 -2.054688 0.984375 -2.476562 1.453125 -2.78125 C 1.679688 -2.925781 2.179688 -3 2.953125 -3 L 2.953125 -10.296875 C 2.316406 -10.296875 1.847656 -10.4375 1.546875 -10.71875 C 1.242188 -11 1.09375 -11.363281 1.09375 -11.8125 C 1.09375 -12.25 1.242188 -12.601562 1.546875 -12.875 C 1.859375 -13.15625 2.378906 -13.296875 3.109375 -13.296875 Z M 5.96875 -13.296875 "/></g></g></g><g fill="#000000" fill-opacity="1"><g transform="translate(205.488889, 346.499977)"><g><path d="M 13.6875 -12.765625 C 14.039062 -13.097656 14.410156 -13.265625 14.796875 -13.265625 C 15.222656 -13.265625 15.578125 -13.109375 15.859375 -12.796875 C 16.140625 -12.492188 16.28125 -11.988281 16.28125 -11.28125 L 16.28125 -9.34375 C 16.28125 -8.625 16.140625 -8.113281 15.859375 -7.8125 C 15.578125 -7.507812 15.210938 -7.359375 14.765625 -7.359375 C 14.359375 -7.359375 14.007812 -7.472656 13.71875 -7.703125 C 13.519531 -7.878906 13.359375 -8.238281 13.234375 -8.78125 C 13.117188 -9.320312 12.835938 -9.722656 12.390625 -9.984375 C 11.597656 -10.453125 10.585938 -10.6875 9.359375 -10.6875 C 7.941406 -10.6875 6.804688 -10.269531 5.953125 -9.4375 C 5.097656 -8.613281 4.671875 -7.566406 4.671875 -6.296875 C 4.671875 -5.128906 5.082031 -4.203125 5.90625 -3.515625 C 6.726562 -2.835938 8.085938 -2.5 9.984375 -2.5 C 11.234375 -2.5 12.253906 -2.628906 13.046875 -2.890625 C 13.515625 -3.046875 13.957031 -3.3125 14.375 -3.6875 C 14.800781 -4.0625 15.1875 -4.25 15.53125 -4.25 C 15.9375 -4.25 16.285156 -4.097656 16.578125 -3.796875 C 16.878906 -3.492188 17.03125 -3.132812 17.03125 -2.71875 C 17.03125 -2.0625 16.578125 -1.429688 15.671875 -0.828125 C 14.328125 0.0546875 12.351562 0.5 9.75 0.5 C 7.414062 0.5 5.601562 0.015625 4.3125 -0.953125 C 2.550781 -2.253906 1.671875 -4.03125 1.671875 -6.28125 C 1.671875 -8.425781 2.382812 -10.195312 3.8125 -11.59375 C 5.238281 -13 7.097656 -13.703125 9.390625 -13.703125 C 10.222656 -13.703125 10.992188 -13.625 11.703125 -13.46875 C 12.421875 -13.3125 13.082031 -13.078125 13.6875 -12.765625 Z M 13.6875 -12.765625 "/></g></g></g><g fill="#000000" fill-opacity="1"><g transform="translate(223.484791, 346.499977)"><g><path d="M 15.296875 -7.15625 L 2.75 -7.15625 L 2.75 -9.890625 L 15.296875 -9.890625 Z M 15.296875 -7.15625 "/></g></g></g><g fill="#000000" fill-opacity="1"><g transform="translate(241.480692, 346.499977)"><g><path d="M 15.375 -13.296875 L 15.375 -3 C 16.007812 -3 16.476562 -2.859375 16.78125 -2.578125 C 17.082031 -2.296875 17.234375 -1.9375 17.234375 -1.5 C 17.234375 -1.050781 17.078125 -0.6875 16.765625 -0.40625 C 16.460938 -0.132812 15.953125 0 15.234375 0 L 12.375 0 L 12.375 -0.6875 C 11.519531 -0.300781 10.703125 -0.0078125 9.921875 0.1875 C 9.140625 0.382812 8.394531 0.484375 7.6875 0.484375 C 6.707031 0.484375 5.851562 0.273438 5.125 -0.140625 C 4.40625 -0.554688 3.832031 -1.128906 3.40625 -1.859375 C 3.101562 -2.390625 2.953125 -3.050781 2.953125 -3.84375 L 2.953125 -10.296875 L 2.453125 -10.296875 C 1.722656 -10.296875 1.203125 -10.4375 0.890625 -10.71875 C 0.585938 -11 0.4375 -11.363281 0.4375 -11.8125 C 0.4375 -12.25 0.585938 -12.601562 0.890625 -12.875 C 1.203125 -13.15625 1.722656 -13.296875 2.453125 -13.296875 L 5.96875 -13.296875 L 5.96875 -4.359375 C 5.96875 -3.722656 6.117188 -3.253906 6.421875 -2.953125 C 6.734375 -2.660156 7.207031 -2.515625 7.84375 -2.515625 C 8.445312 -2.515625 9.097656 -2.632812 9.796875 -2.875 C 10.492188 -3.113281 11.351562 -3.546875 12.375 -4.171875 L 12.375 -10.296875 L 11.296875 -10.296875 C 10.566406 -10.296875 10.046875 -10.4375 9.734375 -10.71875 C 9.429688 -11 9.28125 -11.363281 9.28125 -11.8125 C 9.28125 -12.25 9.429688 -12.601562 9.734375 -12.875 C 10.046875 -13.15625 10.566406 -13.296875 11.296875 -13.296875 Z M 15.375 -13.296875 "/></g></g></g><g fill="#000000" fill-opacity="1"><g transform="translate(259.476594, 346.499977)"><g><path d="M 8.375 -13.296875 L 8.375 -11.421875 C 9.632812 -12.328125 10.628906 -12.929688 11.359375 -13.234375 C 12.085938 -13.546875 12.769531 -13.703125 13.40625 -13.703125 C 14.382812 -13.703125 15.332031 -13.335938 16.25 -12.609375 C 16.875 -12.117188 17.1875 -11.625 17.1875 -11.125 C 17.1875 -10.6875 17.035156 -10.316406 16.734375 -10.015625 C 16.441406 -9.722656 16.082031 -9.578125 15.65625 -9.578125 C 15.289062 -9.578125 14.898438 -9.757812 14.484375 -10.125 C 14.078125 -10.5 13.710938 -10.6875 13.390625 -10.6875 C 12.972656 -10.6875 12.34375 -10.421875 11.5 -9.890625 C 10.664062 -9.367188 9.625 -8.582031 8.375 -7.53125 L 8.375 -3 L 12.65625 -3 C 13.375 -3 13.882812 -2.859375 14.1875 -2.578125 C 14.5 -2.304688 14.65625 -1.945312 14.65625 -1.5 C 14.65625 -1.050781 14.5 -0.6875 14.1875 -0.40625 C 13.882812 -0.132812 13.375 0 12.65625 0 L 3.59375 0 C 2.863281 0 2.34375 -0.132812 2.03125 -0.40625 C 1.726562 -0.6875 1.578125 -1.054688 1.578125 -1.515625 C 1.578125 -1.953125 1.726562 -2.304688 2.03125 -2.578125 C 2.34375 -2.859375 2.863281 -3 3.59375 -3 L 5.375 -3 L 5.375 -10.296875 L 4.296875 -10.296875 C 3.566406 -10.296875 3.046875 -10.4375 2.734375 -10.71875 C 2.429688 -11 2.28125 -11.363281 2.28125 -11.8125 C 2.28125 -12.25 2.429688 -12.601562 2.734375 -12.875 C 3.046875 -13.15625 3.566406 -13.296875 4.296875 -13.296875 Z M 8.375 -13.296875 "/></g></g></g><g fill="#000000" fill-opacity="1"><g transform="translate(277.472496, 346.499977)"><g><path d="M 10.5 -19 L 10.5 -3 L 14.109375 -3 C 14.828125 -3 15.335938 -2.859375 15.640625 -2.578125 C 15.953125 -2.304688 16.109375 -1.945312 16.109375 -1.5 C 16.109375 -1.050781 15.953125 -0.6875 15.640625 -0.40625 C 15.335938 -0.132812 14.828125 0 14.109375 0 L 3.890625 0 C 3.171875 0 2.65625 -0.132812 2.34375 -0.40625 C 2.039062 -0.6875 1.890625 -1.054688 1.890625 -1.515625 C 1.890625 -1.953125 2.039062 -2.304688 2.34375 -2.578125 C 2.65625 -2.859375 3.171875 -3 3.890625 -3 L 7.5 -3 L 7.5 -16 L 5.078125 -16 C 4.367188 -16 3.859375 -16.132812 3.546875 -16.40625 C 3.234375 -16.6875 3.078125 -17.050781 3.078125 -17.5 C 3.078125 -17.945312 3.226562 -18.304688 3.53125 -18.578125 C 3.84375 -18.859375 4.359375 -19 5.078125 -19 Z M 10.5 -19 "/></g></g></g></svg>